<svg width="96" height="85" viewBox="0 0 96 85" fill="none" xmlns="http://www.w3.org/2000/svg">
<path d="M66.8304 36.1381C67.9751 36.0177 69.4746 35.852 70.9758 35.7073C71.3581 35.6709 71.4713 35.4033 71.5723 35.122C72.5424 32.4115 73.5326 29.7091 74.455 26.9825C74.7662 26.0642 74.1858 25.4336 73.2537 25.6317C71.4422 26.0173 69.6306 26.4207 67.8473 26.9178C66.7795 27.2153 66.0115 27.8103 65.9097 29.1352C65.7674 30.9807 65.5362 32.8424 65.0908 34.6346C64.7294 36.088 65.499 36.1268 66.8304 36.1381ZM55.8858 72.6322C61.1459 71.9945 66.1578 71.3719 71.1746 70.7861C73.3572 70.5311 73.4057 70.5736 73.8067 68.4276C74.4008 65.2479 74.94 62.0573 75.4655 58.8651C75.5673 58.2459 75.6934 57.4535 74.6118 57.5594C68.8497 58.1249 63.0876 58.6782 57.3296 59.2774C54.6377 59.5578 53.7145 61.5261 53.8439 63.6927C53.9983 66.2765 54.4744 68.8398 54.6911 71.4224C54.7792 72.4694 55.1163 72.855 55.8858 72.6322ZM54.683 31.6023C54.1996 31.6654 53.8269 31.7179 53.4534 31.7632C50.1528 32.1625 47.3235 31.3032 45.048 28.7633C43.9827 27.5742 42.7721 26.5112 41.8337 25.2113C41.4318 24.6536 41.0584 24.0319 41.5574 23.3141C42.0114 22.6625 42.5881 22.3384 43.4264 22.4297C45.4837 22.6536 47.5289 22.9535 49.6088 23.0061C52.2659 23.0724 54.6086 22.3311 56.7144 20.7378C57.0329 20.4977 57.2916 20.3118 57.37 19.8639C57.6376 18.3393 57.9698 16.8269 58.2891 15.2489C55.8947 15.0573 53.6183 15.6353 51.3161 15.8431C46.7973 16.2521 41.9647 13.0356 40.6649 8.67279C40.1391 6.9081 41.3563 5.42473 43.1727 5.6632C43.9401 5.76425 44.7287 5.88227 45.4457 6.1555C48.4286 7.29208 51.3355 6.85313 54.2869 5.98251C57.6699 4.98416 60.9915 3.81768 64.3139 2.64554C67.3203 1.58576 70.4244 0.832351 73.5334 0.201819C79.3335 -0.973559 84.2145 3.11278 84.4586 9.13598C84.5063 10.3081 83.5961 11.0858 82.3092 10.9047C81.0311 10.7244 79.7692 10.4278 78.4888 10.2701C76.0734 9.97184 73.6676 10.258 71.2781 10.5846C69.9774 10.7624 69.0195 11.933 68.9653 13.3234C68.9071 14.8302 68.9516 16.341 68.9516 17.961C71.7914 17.6514 74.5188 17.0411 77.3029 16.9756C78.34 16.9514 79.3804 16.9796 80.4151 16.9126C82.6705 16.7662 84.2315 17.8236 85.2589 19.72C86.4836 21.9819 87.0923 24.3326 86.2039 26.9113C85.3931 29.2645 84.7044 31.6606 83.951 34.0339C83.6066 35.1164 83.8531 35.8512 84.9097 36.4663C87.7002 38.092 90.4317 39.8203 93.1729 41.5276C94.4097 42.298 95.4202 43.2672 95.775 44.7643C96.311 47.0248 94.9618 48.4035 92.6652 47.856C90.9491 47.4471 89.245 46.9742 87.5587 46.4531C83.301 45.1366 78.9827 45.1362 74.6142 45.6903C66.9121 46.6676 59.281 48.0742 51.6346 49.3978C49.7309 49.7275 47.9039 48.973 45.9533 48.7553C46.3106 49.596 46.6203 50.3781 46.9735 51.1396C47.2734 51.7851 47.7342 52.0605 48.5215 51.9558C56.9052 50.84 65.2961 49.7751 73.6806 48.6626C75.9901 48.3559 78.281 47.851 80.6164 48.4222C80.8242 48.4731 81.0715 48.4314 81.2478 48.5283C84.0205 50.043 86.2548 52.159 87.9734 54.7916C88.49 55.582 88.3154 56.5588 88.1028 57.4451C86.4504 64.3524 84.7852 71.2563 83.1086 78.1578C82.7376 79.6859 82.1378 80.1707 80.5687 80.1148C74.5811 79.9007 68.6727 80.8013 62.7384 81.3408C61.1079 81.4894 59.4702 81.5477 57.8607 81.9028C56.3426 82.2379 54.8923 82.6419 53.5747 83.5683C52.0865 84.6144 50.4956 84.2922 49.1391 83.2427C47.5701 82.0281 46.0989 80.6861 44.6106 79.3704C43.618 78.4924 43.5037 77.324 43.5237 76.0647C43.5938 71.5718 43.6509 67.0768 43.6033 62.584C43.585 60.8518 42.8718 59.4798 41.0066 58.8585C38.7304 58.1002 37.1259 56.5038 36.1069 54.331C35.1997 52.396 34.2988 50.4582 33.2339 48.1757C33.0345 51.1654 32.8625 53.7981 32.6823 56.4303C32.1732 63.8454 31.7367 71.2667 31.1212 78.6736C30.7486 83.1601 27.8197 83.9796 24.4522 81.5712C21.2938 79.3124 19.6614 76.0676 19.8459 71.9941C20.3066 61.8083 20.6992 51.6191 21.0635 41.4298C21.3318 33.9167 21.9381 26.4158 21.729 18.8874C21.6297 15.3039 20.7196 12.0882 18.5502 9.13598C16.6307 6.52412 16.049 6.44652 19.4461 3.47331C21.3648 1.79432 23.6314 1.82989 25.9399 2.053C26.7527 2.13222 27.5556 2.33188 28.3588 2.49841C31.9708 3.24616 33.9362 5.61308 33.8581 9.34131C33.7004 16.8592 33.4793 24.3763 33.2472 31.8926C33.2202 32.7648 33.2343 33.2086 34.3522 33.0736C35.6842 32.9119 36.7237 33.7211 37.6437 34.6087C38.5463 35.4793 39.4227 36.3782 40.3206 37.2529C42.8623 39.7306 45.8895 40.2891 49.2644 39.5357C50.1464 39.3385 51.059 39.1 51.945 39.1453C53.2222 39.2108 53.5343 38.5625 53.6871 37.4962C53.9627 35.5771 54.3281 33.6702 54.683 31.6023Z" fill="#007DFF"/>
<path d="M19.7087 33.4908C19.9846 39.131 18.4226 44.046 17.0961 48.9896C15.6239 54.4766 13.8776 59.8673 10.7584 64.7019C9.79656 66.1924 8.61316 67.3979 6.97196 68.1089C5.60904 68.699 4.74902 68.5475 3.94261 67.307C2.65359 65.324 1.46734 63.2724 0.287085 61.2219C-0.248663 60.2904 0.0219965 59.3656 0.633399 58.5594C3.09862 55.3088 4.74381 51.6338 6.29265 47.8923C8.66285 42.168 9.74064 36.1908 10.009 30.0368C10.1196 27.5021 10.5314 27.1789 12.9821 27.6461C14.5043 27.9366 16.0308 28.2048 17.5534 28.4922C19.0836 28.7821 19.7008 29.5193 19.7079 31.0518C19.7125 32.0032 19.7087 32.9546 19.7087 33.4908Z" fill="#007DFF"/>
</svg>
