<svg width="64" height="64" viewBox="0 0 64 64" fill="none" xmlns="http://www.w3.org/2000/svg">
<path d="M64 32C64 49.6731 49.673 64 32 64C14.3269 64 0 49.6731 0 32C0 14.327 14.3269 1.92726e-06 32 1.92726e-06C49.673 1.92726e-06 64 14.327 64 32Z" fill="#FCFCFC"/>
<path d="M31.941 59.0292C46.8746 59.0013 58.7779 47.0969 58.9919 32.4382C59.2177 16.9609 46.6706 5.00641 32.0289 5.00072C17.3972 4.99503 5.14325 16.7644 5.00666 31.7464C4.86902 46.8449 16.9943 58.9526 31.941 59.0292ZM32.0414 1.6366C48.728 1.60903 62.3179 15.22 62.3477 31.9902C62.3779 48.7549 48.8212 62.3331 32.0225 62.3635C15.2333 62.3938 1.68915 48.8415 1.65217 31.9747C1.6155 15.255 15.2288 1.66461 32.0414 1.6366Z" fill="#060707"/>
<path d="M18.1189 27.6418C18.1189 27.3784 18.1208 26.9117 18.1185 26.445C18.115 25.6932 17.8122 25.3315 17.0615 25.1893C16.3145 25.0479 15.5657 24.9166 14.8189 24.774C13.6165 24.5449 13.4145 24.7034 13.3602 25.947C13.2286 28.9662 12.6998 31.8987 11.537 34.707C10.7771 36.5425 9.97 38.3455 8.76057 39.9403C8.46058 40.3358 8.32781 40.7894 8.59067 41.2464C9.16971 42.2526 9.75168 43.259 10.384 44.2318C10.7797 44.8405 11.2016 44.9148 11.8703 44.6253C12.6754 44.2764 13.256 43.685 13.7279 42.9538C15.2582 40.5819 16.1149 37.9373 16.8372 35.2452C17.488 32.8201 18.2542 30.4085 18.1189 27.6418ZM35.2775 26.7148C35.1036 27.7297 34.9238 28.6651 34.7891 29.6064C34.7138 30.1296 34.5608 30.4478 33.934 30.4156C33.4999 30.393 33.0516 30.5105 32.6192 30.6071C30.9632 30.9768 29.4782 30.7024 28.2312 29.4872C27.7907 29.0578 27.3608 28.617 26.918 28.1901C26.4666 27.7543 25.9566 27.3575 25.3031 27.4365C24.7547 27.503 24.7477 27.2852 24.7611 26.8574C24.8749 23.1695 24.9834 19.4821 25.0608 15.7934C25.099 13.9647 24.1348 12.8035 22.3628 12.4363C21.9687 12.3548 21.5748 12.2565 21.176 12.218C20.0435 12.1085 18.9315 12.0909 17.9902 12.9147C16.3236 14.3733 16.6089 14.4113 17.5506 15.693C18.615 17.1412 19.0614 18.7189 19.1102 20.4769C19.2127 24.1702 18.9153 27.8505 18.7837 31.5361C18.6049 36.5352 18.4123 41.534 18.1863 46.5313C18.0958 48.5297 18.8966 50.1216 20.4462 51.2297C22.0983 52.4114 23.5352 52.0093 23.718 49.8082C24.02 46.1744 24.2341 42.5335 24.4839 38.8956C24.5723 37.6042 24.6566 36.3126 24.7545 34.8458C25.277 35.9656 25.7189 36.9164 26.164 37.8657C26.6639 38.9316 27.4511 39.7149 28.5678 40.0869C29.4829 40.3917 29.8328 41.0648 29.8418 41.9146C29.8651 44.1188 29.8371 46.3241 29.8027 48.5283C29.7929 49.1461 29.8489 49.7194 30.336 50.1501C31.066 50.7956 31.788 51.4539 32.5578 52.0499C33.2231 52.5648 34.0038 52.7228 34.7339 52.2096C35.38 51.7551 36.0917 51.5569 36.8365 51.3925C37.6264 51.2183 38.4297 51.1896 39.2297 51.1168C42.141 50.8521 45.0397 50.4103 47.9774 50.5153C48.7468 50.5427 49.0412 50.3048 49.2231 49.5551C50.0456 46.1693 50.8627 42.7822 51.6736 39.3935C51.7777 38.9586 51.8634 38.4794 51.61 38.0917C50.7666 36.8001 49.6705 35.7619 48.3102 35.0188C48.2237 34.9713 48.1024 34.9918 48.0008 34.9668C46.8546 34.6866 45.7305 34.9343 44.5977 35.0847C40.4842 35.6305 36.3677 36.153 32.2546 36.7004C31.8683 36.7518 31.6425 36.6166 31.4953 36.3C31.3217 35.9263 31.17 35.5427 30.9946 35.1302C31.9516 35.237 32.8479 35.6072 33.7822 35.4455C37.5332 34.7961 41.277 34.106 45.0556 33.6265C47.1987 33.3547 49.3176 33.3549 51.4064 34.0008C52.2335 34.2564 53.0699 34.4884 53.912 34.689C55.0382 34.9576 55.7001 34.2812 55.4375 33.172C55.2632 32.4379 54.7672 31.9624 54.1609 31.5845C52.8156 30.7464 51.4758 29.8987 50.1071 29.1013C49.5886 28.7993 49.4677 28.4389 49.6363 27.9078C50.0059 26.7436 50.3438 25.5681 50.7419 24.4136C51.1776 23.1482 50.8791 21.9953 50.2781 20.8855C49.7743 19.955 49.0082 19.4361 47.9017 19.508C47.394 19.541 46.8839 19.5272 46.3749 19.539C45.0088 19.5712 43.6706 19.8706 42.2777 20.0224C42.2777 19.2278 42.256 18.4864 42.2844 17.7471C42.3107 17.0651 42.7808 16.4909 43.4193 16.4035C44.5914 16.2433 45.7715 16.1033 46.9566 16.2492C47.5847 16.3266 48.204 16.4721 48.8313 16.5603C49.4623 16.6494 49.9089 16.268 49.8855 15.693C49.7659 12.7378 47.3714 10.7331 44.5258 11.3098C43.0003 11.6192 41.4773 11.9885 40.0024 12.5087C38.3724 13.0837 36.7428 13.6557 35.0831 14.1454C33.635 14.5728 32.209 14.7885 30.7456 14.2307C30.3939 14.0965 30.007 14.0383 29.6305 13.989C28.7394 13.8723 28.1422 14.5999 28.4001 15.4656C29.0379 17.6062 31.4089 19.1839 33.6258 18.9836C34.7552 18.8812 35.8718 18.5981 37.0468 18.6917C36.89 19.4658 36.7269 20.208 36.5956 20.9561C36.5571 21.1757 36.4304 21.2668 36.2745 21.3848C35.2407 22.1663 34.0916 22.5301 32.7881 22.4975C31.7678 22.472 30.7642 22.3244 29.755 22.2148C29.3437 22.1701 29.0608 22.329 28.8381 22.6489C28.5932 23.0006 28.7764 23.3058 28.9736 23.5793C29.434 24.2174 30.0279 24.7385 30.5505 25.3223C31.6668 26.568 33.055 26.9895 34.6741 26.7938C34.8577 26.7716 35.0404 26.7457 35.2775 26.7148ZM31.941 59.0292C16.9942 58.9526 4.86891 46.8448 5.00653 31.7464C5.14315 16.7644 17.3971 4.99497 32.0288 5.00082C46.6706 5.00668 59.2178 16.9609 58.992 32.4381C58.7779 47.0969 46.8747 59.0013 31.941 59.0292Z" fill="#FCFCFC"/>
<path d="M41.2371 28.9402C41.7987 28.8811 42.5344 28.7998 43.2709 28.7288C43.4584 28.7109 43.514 28.5797 43.5635 28.4416C44.0394 27.1119 44.5253 25.7861 44.9778 24.4484C45.1305 23.9978 44.8457 23.6885 44.3884 23.7857C43.4997 23.9748 42.6109 24.1727 41.7361 24.4166C41.2122 24.5626 40.8354 24.8545 40.7854 25.5045C40.7156 26.4099 40.6022 27.3233 40.3837 28.2025C40.2064 28.9156 40.584 28.9346 41.2371 28.9402ZM35.8677 46.8442C38.4483 46.5314 40.9072 46.226 43.3684 45.9386C44.4392 45.8135 44.463 45.8343 44.6597 44.7815C44.9512 43.2215 45.2157 41.6562 45.4735 40.0901C45.5235 39.7863 45.5854 39.3975 45.0547 39.4495C42.2278 39.7269 39.4009 39.9984 36.576 40.2924C35.2554 40.4299 34.8025 41.3956 34.8659 42.4585C34.9417 43.7261 35.1753 44.9837 35.2815 46.2507C35.3248 46.7644 35.4901 46.9535 35.8677 46.8442ZM35.2776 26.7149C35.0404 26.7458 34.8576 26.7716 34.6744 26.7938C33.0551 26.9897 31.667 26.5682 30.5506 25.3221C30.028 24.7387 29.4341 24.2172 28.9737 23.5794C28.7765 23.3058 28.5933 23.0008 28.8381 22.6486C29.0609 22.329 29.3438 22.17 29.7551 22.2148C30.7644 22.3246 31.7677 22.4718 32.7882 22.4975C34.0918 22.5301 35.2411 22.1664 36.2742 21.3847C36.4305 21.2669 36.5574 21.1757 36.5958 20.956C36.7271 20.208 36.8901 19.466 37.0468 18.6918C35.8721 18.5979 34.7553 18.8814 33.6258 18.9833C31.4088 19.184 29.0379 17.606 28.4003 15.4656C28.1423 14.5998 28.7395 13.8721 29.6306 13.9891C30.0071 14.0386 30.394 14.0965 30.7457 14.2306C32.2091 14.7882 33.6353 14.5728 35.0832 14.1457C36.743 13.6559 38.3726 13.0836 40.0026 12.5086C41.4775 11.9887 43.0004 11.619 44.5257 11.3097C47.3712 10.7331 49.7658 12.7378 49.8856 15.6928C49.909 16.2679 49.4624 16.6494 48.8311 16.5606C48.204 16.4721 47.585 16.3266 46.9568 16.2492C45.7718 16.1029 44.5915 16.2433 43.4192 16.4035C42.7811 16.4908 42.3111 17.065 42.2845 17.7472C42.256 18.4864 42.2778 19.2276 42.2778 20.0224C43.671 19.8705 45.0091 19.5711 46.375 19.539C46.8838 19.5271 47.3942 19.5409 47.9018 19.508C49.0083 19.4362 49.7742 19.955 50.2782 20.8854C50.8791 21.9951 51.1777 23.1483 50.7418 24.4135C50.3441 25.5679 50.0062 26.7434 49.6365 27.9078C49.4676 28.4389 49.5885 28.7994 50.1069 29.1012C51.4759 29.8987 52.816 30.7466 54.1608 31.5842C54.7676 31.9622 55.2634 32.4377 55.4375 33.1722C55.7004 34.2812 55.0385 34.9576 53.9118 34.689C53.0698 34.4884 52.2338 34.2564 51.4065 34.0007C49.3177 33.3548 47.1991 33.3546 45.0559 33.6265C41.2772 34.1059 37.5334 34.796 33.782 35.4454C32.8481 35.6071 31.9518 35.237 30.9948 35.1302C31.1701 35.5427 31.322 35.9263 31.4953 36.2999C31.6424 36.6166 31.8685 36.7517 32.2548 36.7003C36.3678 36.1529 40.4844 35.6305 44.5978 35.0847C45.7309 34.9342 46.8548 34.6865 48.0006 34.9668C48.1025 34.9918 48.2239 34.9713 48.3103 35.0188C49.6706 35.7619 50.7668 36.8001 51.61 38.0916C51.8634 38.4794 51.7777 38.9586 51.6734 39.3934C50.8628 42.7822 50.0458 46.1692 49.2233 49.5551C49.0413 50.3048 48.747 50.5427 47.9772 50.5153C45.0396 50.4102 42.141 50.852 39.2296 51.1167C38.4297 51.1896 37.6262 51.2183 36.8366 51.3925C36.0918 51.5569 35.3803 51.755 34.7338 52.2095C34.0037 52.7228 33.2232 52.5647 32.5577 52.0498C31.788 51.4539 31.0662 50.7955 30.3361 50.15C29.849 49.7193 29.793 49.1461 29.8028 48.5283C29.8372 46.324 29.8652 44.1188 29.8419 41.9146C29.8329 41.0648 29.483 40.3917 28.5679 40.0868C27.4512 39.7148 26.664 38.9316 26.1641 37.8656C25.719 36.9163 25.277 35.9656 24.7546 34.8458C24.6568 36.3126 24.5724 37.6042 24.484 38.8956C24.2342 42.5335 24.0201 46.1744 23.7181 49.8082C23.5353 52.0093 22.0983 52.4114 20.4463 51.2298C18.8967 50.1216 18.0959 48.5297 18.1864 46.5312C18.4124 41.534 18.605 36.5352 18.7838 31.5363C18.9154 27.8503 19.2128 24.1704 19.1103 20.4769C19.0615 18.7188 18.615 17.1412 17.5507 15.6928C16.609 14.4114 16.3236 14.3734 17.9903 12.9147C18.9316 12.091 20.0436 12.1084 21.1761 12.2179C21.5749 12.2568 21.9688 12.3547 22.3629 12.4364C24.1349 12.8033 25.0991 13.9645 25.0608 15.7936C24.9835 19.4819 24.875 23.1698 24.7611 26.8573C24.7479 27.2852 24.7548 27.5029 25.3032 27.4367C25.9567 27.3574 26.4667 27.7544 26.9181 28.1898C27.3609 28.6169 27.7908 29.058 28.2313 29.4871C29.4783 30.7026 30.9635 30.9767 32.6192 30.607C33.0519 30.5103 33.4997 30.3933 33.9343 30.4155C34.5609 30.4476 34.714 30.1295 34.789 29.6064C34.9242 28.6649 35.1035 27.7294 35.2776 26.7149Z" fill="#060707"/>
<path d="M18.1191 27.6414C18.2544 30.4085 17.4882 32.8198 16.8374 35.2451C16.1151 37.9371 15.2584 40.5818 13.7281 42.9537C13.2562 43.6849 12.6756 44.2763 11.8704 44.6252C11.2018 44.9146 10.7798 44.8403 10.3842 44.2317C9.75181 43.2589 9.16983 42.2523 8.5908 41.2463C8.32796 40.7894 8.46074 40.3357 8.7607 39.9402C9.97014 38.3454 10.7773 36.5424 11.5371 34.7068C12.7 31.8985 13.2287 28.966 13.3604 25.9468C13.4146 24.7033 13.6167 24.5447 14.819 24.774C15.5658 24.9165 16.3147 25.048 17.0617 25.1891C17.8124 25.3313 18.1152 25.693 18.1187 26.4448C18.1209 26.9116 18.1191 27.3783 18.1191 27.6414Z" fill="#060707"/>
<path d="M35.8675 46.8443C35.4898 46.9536 35.3245 46.7644 35.2814 46.2508C35.1753 44.9838 34.9415 43.7262 34.8659 42.4586C34.8023 41.3957 35.2553 40.43 36.5757 40.2924C39.4005 39.9985 42.228 39.727 45.0545 39.4497C45.585 39.3975 45.5231 39.7864 45.4733 40.0901C45.2157 41.6563 44.9511 43.2216 44.6597 44.7815C44.4627 45.8344 44.4389 45.8135 43.3681 45.9386C40.9069 46.226 38.4481 46.5314 35.8675 46.8443Z" fill="#FCFCFC"/>
<path d="M41.237 28.9401C40.5842 28.9348 40.2063 28.9155 40.3835 28.2023C40.6021 27.3235 40.7155 26.4099 40.7855 25.5045C40.8356 24.8546 41.2122 24.5627 41.736 24.4167C42.6108 24.1729 43.4995 23.9748 44.3886 23.7854C44.8458 23.6882 45.1304 23.9977 44.9778 24.4486C44.5253 25.7858 44.0393 27.1118 43.5636 28.4415C43.5141 28.5798 43.4584 28.7108 43.271 28.7287C42.5345 28.7997 41.7987 28.881 41.237 28.9401Z" fill="#FCFCFC"/>
</svg>
